<svg width="29" height="32" viewBox="0 0 29 32" fill="none" xmlns="http://www.w3.org/2000/svg">
<path d="M28.1191 6.76667C27.7969 6.12222 27.3941 5.31667 26.508 4.75278C26.1053 4.43056 25.6219 4.18889 25.1386 4.02778C24.7358 3.94722 24.4136 3.86667 23.9303 3.86667H23.8497C23.2858 3.86667 22.2386 3.94722 21.6747 4.83333C21.3525 5.15556 21.2719 5.71944 21.3525 6.20278C21.433 6.44444 21.7553 6.84722 22.158 6.92778C22.158 6.92778 22.2386 7.00833 22.4803 7.00833C22.4803 7.08889 22.3997 7.33056 22.3997 7.33056C21.9969 7.57222 21.5941 8.05556 20.1441 8.05556H20.0636C19.3386 7.975 18.6941 7.73333 17.8886 6.92778C17.4053 6.36389 17.1636 5.31667 17.1636 3.70556C17.1636 2.81944 17.083 2.175 16.8414 1.61111C16.7608 1.20833 16.358 0.886111 16.1164 0.644444C15.7941 0.483333 15.633 0.322222 15.1497 0.161111L13.5386 0C12.9747 0 12.5719 0.0805556 12.4108 0.402778H11.8469C11.5247 0.402778 11.2025 0.483333 10.8803 0.483333C10.3164 0.563889 9.91359 0.886111 9.51081 1.12778C9.43025 1.20833 9.02748 1.61111 8.94692 2.01389C8.94692 2.33611 9.02748 2.57778 9.02748 2.65833L9.10803 2.73889C9.26914 2.57778 9.67192 2.41667 10.1553 2.41667C10.7997 2.41667 11.7664 2.73889 11.9275 3.14167C12.4108 3.86667 12.2497 4.51111 12.2497 5.15556C11.9275 7.00833 11.283 7.89444 9.83303 8.05556C9.51081 8.13611 9.26914 8.13611 9.10803 8.13611C8.06081 8.13611 7.33581 7.89444 6.93303 7.25V7.00833C6.93303 7.00833 7.01359 7.00833 7.09414 6.92778C7.49692 6.76667 7.73859 6.44444 7.8997 6.04167C7.98025 5.55833 7.8997 5.075 7.57747 4.67222C7.01359 4.18889 6.28859 3.78611 5.40247 3.78611C4.83859 3.78611 4.43581 3.86667 4.03303 4.02778C2.90525 4.26944 1.85803 5.23611 1.13303 6.76667C0.569141 7.89444 0.166363 9.26389 0.0858073 10.7944C0.00525174 12.325 0.00525174 13.5333 0.0858073 14.6611C0.166363 16.5944 0.569141 17.7222 1.05247 18.9306C1.53581 20.1389 2.0997 21.2667 2.74414 22.3139C2.90525 22.6361 3.06636 22.8778 3.22747 23.0389L3.30803 22.9583C3.38859 22.8778 3.46914 22.7972 3.63025 22.5556C4.03303 22.2333 4.67747 21.3472 4.83859 21.025C4.9997 20.7028 5.32192 20.3 5.48303 19.8167L5.56359 19.6556L5.7247 19.7361C5.88581 19.8972 6.04692 20.2194 6.04692 20.4611C6.04692 20.7028 5.96636 21.025 5.7247 21.5889C5.56359 22.2333 5.16081 23.0389 4.75803 23.7639C4.91914 23.925 4.91914 24.1667 4.83859 24.1667C4.51636 24.65 4.51636 24.8111 4.51636 25.0528H4.59692C4.67747 25.0528 5.08025 24.9722 5.32192 24.65C5.64414 24.4083 6.4497 23.7639 7.41636 22.3944C8.14136 21.4278 8.6247 20.3806 9.18859 19.2528L9.26914 19.0917L9.43025 19.1722C9.51081 19.2528 9.59136 19.2528 9.75248 19.3333C9.83303 19.4944 9.83303 19.8167 9.83303 20.0583C9.75247 20.7833 9.26914 21.8306 8.94692 22.6361C8.38303 24.0056 7.33581 25.375 6.61081 26.4222C6.61081 26.5028 6.4497 26.7444 6.28859 26.7444C6.36914 26.825 6.4497 26.9056 6.69136 27.0667L7.01359 27.3889C8.06081 28.275 9.02748 28.9194 10.2358 29.5639C11.2025 30.1278 13.0553 31.0944 14.4247 31.4972C15.7941 31.175 17.6469 30.1278 18.6136 29.5639C19.8219 28.9194 20.7886 28.1944 21.8358 27.3889L22.158 27.0667C22.3191 26.9861 22.4803 26.7444 22.5608 26.7444C22.6414 26.5833 22.6414 26.4222 22.6414 26.3417L22.5608 26.2611C21.7553 25.375 20.708 23.8444 20.1441 22.5556C19.8219 21.8306 19.4191 20.7833 19.258 19.9778C19.1775 19.6556 19.258 19.4139 19.3386 19.2528L19.4997 19.0917C19.5803 19.0111 19.8219 19.0111 19.8219 19.0111L19.9025 19.1722C20.4664 20.3 21.0303 21.3472 21.6747 22.3139C22.6414 23.6833 23.3664 24.3278 23.6886 24.4889C24.0108 24.8111 24.2525 24.8917 24.4136 24.8917H24.4941C24.5747 24.8111 24.4941 24.5694 24.1719 24.1667C24.0914 24.0861 24.0914 24.0056 24.0914 23.8444C23.6886 23.1194 23.3664 22.3139 23.1247 21.6694C22.9636 21.1056 22.8025 20.7028 22.8025 20.5417C22.8025 20.2194 22.883 19.9778 23.1247 19.8167L23.2858 19.7361L23.3664 19.8972C23.5275 20.3806 23.9303 20.9444 24.0914 21.2667C24.2525 21.5889 25.058 22.3944 25.2191 22.7167C25.3803 22.8778 25.5414 23.0389 25.5414 23.1194L25.6219 23.2C25.7025 23.1194 25.783 22.8778 26.0247 22.5556L26.1053 22.475C26.6691 21.5083 27.233 20.3 27.7164 19.0917C28.1997 17.9639 28.4414 16.7556 28.683 14.8222C28.7636 13.6944 28.8441 12.4861 28.683 10.9556C29.0053 9.18333 28.6025 7.81389 28.1191 6.76667Z" fill="#00AFE9"/>
</svg>
