<svg width="30" height="30" viewBox="0 0 30 30" fill="none" xmlns="http://www.w3.org/2000/svg">
<path d="M20.1568 18.6152L16.5415 15L20.1568 11.3848C20.5786 10.9629 20.5786 10.2715 20.1568 9.84375C19.9517 9.63867 19.6763 9.52734 19.3892 9.52734C19.0962 9.52734 18.8267 9.63867 18.6216 9.84375L15.0005 13.459L11.3853 9.84375C10.9634 9.42187 10.272 9.42187 9.84424 9.84375C9.42236 10.2656 9.42236 10.957 9.84424 11.3848L13.4595 15L9.84424 18.6152C9.63916 18.8203 9.52783 19.0957 9.52783 19.3828C9.52783 19.6758 9.63916 19.9453 9.84424 20.1504C10.0493 20.3555 10.3247 20.4727 10.6177 20.4727C10.9048 20.4727 11.1802 20.3613 11.3853 20.1563L15.0005 16.541L18.6157 20.1563C18.8208 20.3613 19.0962 20.4785 19.3892 20.4785C19.6763 20.4785 19.9517 20.3672 20.1568 20.1621C20.5786 19.7285 20.5786 19.0371 20.1568 18.6152Z" fill="white"/>
<path d="M15 0C6.72656 0 0 6.72656 0 15C0 23.2734 6.72656 30 15 30C23.2734 30 30 23.2676 30 15C30 6.73242 23.2734 0 15 0ZM15 27.6738C8.00977 27.6738 2.32617 21.9902 2.32617 15C2.32617 8.00977 8.00977 2.32617 15 2.32617C21.9902 2.32617 27.6738 8.00977 27.6738 15C27.6738 21.9902 21.9902 27.6738 15 27.6738Z" fill="white"/>
</svg>
