<svg width="47" height="47" viewBox="0 0 47 47" fill="none" xmlns="http://www.w3.org/2000/svg">
<path d="M23.5 47C36.4787 47 47 36.4787 47 23.5C47 10.5213 36.4787 0 23.5 0C10.5213 0 0 10.5213 0 23.5C0 36.4787 10.5213 47 23.5 47Z" fill="#DBF7EF"/>
<path d="M32.4361 12.7559H29.3633C28.9519 12.7559 28.6133 13.0944 28.6133 13.5059C28.6133 13.9173 28.9519 14.2559 29.3633 14.2559H32.4361C32.9761 14.2559 33.4133 14.693 33.4133 15.233V18.3059C33.4133 18.7173 33.7519 19.0559 34.1633 19.0559C34.5747 19.0559 34.9133 18.7173 34.9133 18.3059V15.233C34.9133 13.8659 33.8033 12.7559 32.4361 12.7559Z" fill="#2CD19E"/>
<path d="M13.5059 19.0559C13.9173 19.0559 14.2559 18.7173 14.2559 18.3059V15.233C14.2559 14.693 14.693 14.2559 15.233 14.2559H18.3059C18.7173 14.2559 19.0559 13.9173 19.0559 13.5059C19.0559 13.0944 18.7173 12.7559 18.3059 12.7559H15.233C13.8659 12.7559 12.7559 13.8659 12.7559 15.233V18.3059C12.7559 18.7173 13.0944 19.0559 13.5059 19.0559Z" fill="#2CD19E"/>
<path d="M18.3059 33.4133H15.233C14.693 33.4133 14.2559 32.9761 14.2559 32.4361V29.3633C14.2559 28.9519 13.9173 28.6133 13.5059 28.6133C13.0944 28.6133 12.7559 28.9519 12.7559 29.3633V32.4361C12.7559 33.8033 13.8659 34.9133 15.233 34.9133H18.3059C18.7173 34.9133 19.0559 34.5747 19.0559 34.1633C19.0559 33.7519 18.7173 33.4133 18.3059 33.4133Z" fill="#2CD19E"/>
<path d="M34.1633 28.6133C33.7519 28.6133 33.4133 28.9519 33.4133 29.3633V32.4361C33.4133 32.9761 32.9761 33.4133 32.4361 33.4133H29.3633C28.9519 33.4133 28.6133 33.7519 28.6133 34.1633C28.6133 34.5747 28.9519 34.9133 29.3633 34.9133H32.4361C33.8033 34.9133 34.9133 33.8033 34.9133 32.4361V29.3633C34.9133 28.9519 34.5747 28.6133 34.1633 28.6133Z" fill="#2CD19E"/>
<path d="M27.5029 17.6846H29.5429C29.7615 17.6846 29.9415 17.8646 29.9415 18.0831V20.1231C29.9415 20.5346 30.2801 20.8731 30.6915 20.8731C31.1029 20.8731 31.4415 20.5346 31.4415 20.1231V18.0831C31.4415 17.0374 30.5886 16.1846 29.5429 16.1846H27.5029C27.0915 16.1846 26.7529 16.5231 26.7529 16.9346C26.7529 17.346 27.0915 17.6846 27.5029 17.6846Z" fill="#2CD19E"/>
<path d="M16.2275 18.0831V20.1231C16.2275 20.5346 16.5661 20.8731 16.9775 20.8731C17.389 20.8731 17.7275 20.5346 17.7275 20.1231V18.0831C17.7275 17.8646 17.9075 17.6846 18.1261 17.6846H20.1661C20.5775 17.6846 20.9161 17.346 20.9161 16.9346C20.9161 16.5231 20.5775 16.1846 20.1661 16.1846H18.1261C17.0804 16.1846 16.2275 17.0374 16.2275 18.0831Z" fill="#2CD19E"/>
<path d="M20.1661 29.8985H18.1261C17.9075 29.8985 17.7275 29.7185 17.7275 29.5V27.46C17.7275 27.0485 17.389 26.71 16.9775 26.71C16.5661 26.71 16.2275 27.0485 16.2275 27.46V29.5C16.2275 30.5457 17.0804 31.3985 18.1261 31.3985H20.1661C20.5775 31.3985 20.9161 31.06 20.9161 30.6485C20.9161 30.2371 20.5775 29.8985 20.1661 29.8985Z" fill="#2CD19E"/>
<path d="M31.4415 29.5V27.46C31.4415 27.0485 31.1029 26.71 30.6915 26.71C30.2801 26.71 29.9415 27.0485 29.9415 27.46V29.5C29.9415 29.7185 29.7615 29.8985 29.5429 29.8985H27.5029C27.0915 29.8985 26.7529 30.2371 26.7529 30.6485C26.7529 31.06 27.0915 31.3985 27.5029 31.3985H29.5429C30.5886 31.3985 31.4415 30.5457 31.4415 29.5Z" fill="#2CD19E"/>
<path d="M12.7988 23.834C12.7988 24.2454 13.1374 24.584 13.5488 24.584H34.1203C34.5317 24.584 34.8703 24.2454 34.8703 23.834C34.8703 23.4226 34.5317 23.084 34.1203 23.084H13.5488C13.1374 23.084 12.7988 23.4226 12.7988 23.834Z" fill="#2CD19E"/>
</svg>
