<svg width="33" height="17" viewBox="0 0 33 17" fill="none" xmlns="http://www.w3.org/2000/svg">
<g clip-path="url(#clip0_800_932)">
<path d="M1.82211 9.11417H3.67327V11.0533H5.49538V5.90083H3.67327V7.75784H1.82211V5.90083H0V11.0546H1.82211V9.11417ZM7.8694 10.2771H9.52647L9.88561 11.0533H11.7354L9.58192 5.90083H8.00672L5.6327 11.0533H7.51026L7.8694 10.2771ZM8.75273 8.17242L9.11187 9.30888H8.31173L8.75273 8.17242ZM15.5474 9.86121H13.7794V5.90083H12.0114V11.0546H15.5474V9.86121ZM15.8233 5.90083H17.6454V11.0533H15.8233V5.90083ZM21.9261 6.98166V5.90083H18.336V11.0546H20.1304V9.03072H21.9247V7.92208H20.1304V6.98033H21.9261V6.98166ZM33 5.90083H31.0947L29.9618 7.20286L28.8857 5.90083H26.7586L28.7761 8.47706L27.1666 10.5063L25.2415 5.90083H23.6399L21.2936 11.0533H23.1712L23.5303 10.2771H25.1874L25.5188 11.0533H28.7484L29.7704 9.77909L30.7646 11.0533H32.9749L30.9587 8.47706L33 5.90083ZM23.97 9.30755L24.4123 8.1711L24.7437 9.30755H23.97ZM19.6339 16.6217L20.0485 16.9541H32.8891L32.4468 16.6217H19.6339ZM0.192774 16.9541H13.0334L13.4202 16.6217H0.60737L0.192774 16.9541ZM31.6466 15.9289H18.8338L19.2193 16.2614H32.0612L31.6466 15.9289ZM1.02197 16.2614H13.8362L14.2494 15.9289H1.40751L1.02197 16.2614ZM30.8452 15.2362H18.0323L18.4192 15.5687H31.2598L30.8452 15.2362ZM1.82211 15.5687H14.6627L15.0496 15.2362H2.23671L1.82211 15.5687ZM30.045 14.5435H17.2044L17.619 14.8759H30.4596L30.045 14.5435ZM2.6513 14.8759H15.4655L15.8788 14.5435H3.03817L2.6513 14.8759ZM29.2171 13.8521H16.403L16.7898 14.1845H29.6304L29.2171 13.8521ZM3.45145 14.1845H15.851L15.4378 13.8521H3.86604L3.45145 14.1845ZM28.4157 13.1593H15.6015L15.9884 13.4918H28.8012L28.4157 13.1593ZM4.28064 13.4918H15.0509L14.6376 13.1593H4.66751L4.28064 13.4918ZM27.5878 12.4653H14.7736L15.1605 12.799H28.0011L27.5878 12.4653ZM5.08078 12.799H14.2217L13.8084 12.4653H5.46765L5.08078 12.799ZM13.9722 11.7738L14.359 12.1063H27.1732L26.7863 11.7738H13.9722ZM5.88225 12.1063H13.4216L13.0083 11.7738H6.29684L5.88225 12.1063ZM18.641 4.84782H5.82679L6.21366 5.18161H19.0543L18.641 4.84782ZM27.2564 4.84782H19.5798L19.9666 5.18161H26.8418L27.2564 4.84782ZM5.02533 4.15641L5.4122 4.48887H18.2541L17.8395 4.15641H5.02533ZM28.0565 4.15641H18.7783L19.1638 4.48887H27.6697L28.0565 4.15641ZM4.61073 3.79481H17.4249L17.038 3.46235H4.22518L4.61073 3.79481ZM28.8857 3.46235H17.9504L18.365 3.79481H28.4711L28.8857 3.46235ZM3.81059 3.1034H16.6248L16.2102 2.77094H3.39731L3.81059 3.1034ZM29.2726 3.1034L29.6859 2.77094H17.149L17.5345 3.1034H29.2726ZM2.98271 2.41067H15.8233L15.41 2.07821H2.59585L2.98271 2.41067ZM30.5151 2.07821H17.6745L17.2599 2.41067H30.1005L30.5151 2.07821ZM2.18125 1.71793H14.9954L14.6086 1.38547H1.76797L2.18125 1.71793ZM31.3152 1.38547H18.4746L18.0877 1.71793H30.9019L31.3152 1.38547ZM1.35338 1.0252H14.194L13.7807 0.692735H0.938783L1.35338 1.0252ZM32.1167 0.692735H19.3038L18.8892 1.0252H31.7021L32.1167 0.692735ZM13.3661 0.333784L12.9792 0H0.165046L0.551915 0.333784H13.3661ZM32.9445 0H20.1039L19.6907 0.333784H32.5313L32.9445 0Z" fill="#2360A5"/>
</g>
<defs>
<clipPath id="clip0_800_932">
<rect width="33" height="16.9541" fill="white"/>
</clipPath>
</defs>
</svg>
