<svg width="33" height="21" viewBox="0 0 33 21" fill="none" xmlns="http://www.w3.org/2000/svg">
<g clip-path="url(#clip0_216_87)">
<path d="M32.1244 10.3134C32.5629 10.6346 32.9998 10.8629 32.9998 11.3447C32.9998 11.4816 32.8162 11.6422 32.3999 11.6422C32.077 11.6422 31.7319 11.5509 31.5704 11.321C31.4327 11.1605 31.6163 10.9322 31.5245 10.748C31.4327 10.611 31.2475 10.6787 31.1098 10.611C30.9484 10.5197 30.9484 10.4504 30.8328 10.2442C30.7173 9.99225 30.3263 9.55613 29.8657 9.09798C29.4747 8.7091 29.0584 8.50128 28.8748 8.52489C28.7371 8.54851 28.6912 8.54851 28.5756 8.54851C28.2527 8.54851 27.9535 8.86969 27.4929 9.05232C27.17 9.1893 26.9864 9.28219 26.7553 9.30423L26.6856 9.39554L27.1241 9.37193C27.5151 9.37193 28.0691 9.30265 28.4601 9.30265C28.8748 9.30265 29.0821 9.66949 29.2436 10.0584C29.5665 10.8377 30.0271 11.9839 30.6033 12.9238C30.8803 13.3599 31.1098 13.6575 31.1098 14.2069C31.1098 14.3675 31.0861 14.5958 30.8566 14.5958C30.5336 14.5958 29.728 14.2746 29.728 13.9078C29.728 13.6323 29.9353 13.5189 29.9353 13.2434C29.9353 13.0828 29.6821 13.1064 29.6124 12.9458C29.405 12.0972 29.1739 11.2722 28.6912 10.7684C28.4379 10.5165 28.4142 10.4016 28.1846 10.4016C28.0469 10.4016 27.9314 10.4252 27.8158 10.4709C27.1478 10.7228 26.2725 11.4328 25.1882 11.7776C24.7735 11.9146 24.7039 11.6627 24.267 11.754H24.2907C23.9457 11.8233 23.6687 12.0295 23.208 12.1429C22.5401 12.3255 21.4099 12.4184 20.5124 12.3035C19.8666 12.2122 19.0371 12.0972 18.6683 12.0972C18.3913 12.8766 17.8151 13.9078 16.9398 14.3203C16.4792 14.5265 16.3399 14.8021 16.4792 15.3295C16.6406 15.9719 17.2168 16.4521 17.516 16.9795C17.793 17.4612 18.2298 18.1949 18.7142 18.4468C19.1986 18.6987 19.474 19.0435 19.474 19.3411C19.474 19.4781 19.4043 19.571 19.2666 19.571H18.3217C18.1839 19.571 18.1143 19.4796 18.0684 19.434C17.9307 19.1821 18.0225 18.9522 17.861 18.746C17.7233 18.5854 17.6299 18.631 17.4701 18.4941C17.1931 18.2185 17.4004 18.0579 17.1931 17.7147C16.5931 16.7748 16.3399 16.5449 15.8333 15.8805C15.5563 15.5137 15.2113 15.3531 15.2113 14.8713C15.2113 14.2983 15.7874 14.2069 15.7637 13.6339C15.3949 13.9094 14.958 14.1156 14.2884 14.2069C14.1966 14.2306 13.9655 14.3896 13.8737 14.5045C13.6426 14.7344 13.5508 14.9627 13.5287 15.3075C13.459 16.0868 13.2976 16.8661 13.391 17.6455C13.5287 18.1493 13.5983 18.3099 14.013 18.5854C14.2663 18.746 14.5655 18.9979 14.6129 19.3647C14.6129 19.456 14.5892 19.571 14.4515 19.571H13.4369C13.345 19.571 13.2532 19.5017 13.2295 19.434C13.1139 19.2277 13.1836 19.0908 13.1377 18.8609C13.0459 18.3791 12.5156 18.4248 12.5156 17.9446C12.5156 17.8076 12.6074 17.6234 12.6074 17.3258C12.6312 16.6614 12.8385 15.6066 12.6312 14.3234C12.5394 13.5677 13.3229 13.5441 13.7139 12.9018C13.9671 12.5349 13.8753 12.6955 14.0368 12.42C14.1745 12.1445 14.1523 11.9382 14.1286 11.7556C14.1286 11.5493 13.9212 11.0912 14.0589 10.1513C14.1048 9.73876 14.3122 9.32627 14.5892 8.95943C14.5892 8.93582 14.5892 8.89016 14.4974 8.89016C14.1064 8.91377 14.1064 8.82088 13.8294 8.82088C13.5761 8.82088 13.3688 9.02713 13.3229 9.14206C13.1852 9.09641 13.1393 8.93582 13.1393 8.86654C13.1393 8.72957 13.163 8.59102 13.3007 8.45405C13.3466 8.40839 13.3007 8.36273 13.2311 8.36273C12.9082 8.36273 12.609 8.75161 12.5394 9.02713C12.3557 9.00352 12.332 8.75161 12.2624 8.75161C12.1705 8.75161 12.1246 8.88858 12.1246 9.00352C12.1246 9.91982 13.6221 10.1261 13.6221 11.3179C13.6221 12.716 11.9394 12.4184 11.9394 12.9222C11.9394 13.0135 12.0091 13.1049 12.1468 13.1741C12.1009 13.3111 11.9394 13.3568 11.778 13.3568C11.4092 13.3568 11.1322 13.0812 11.1322 12.7144C11.1322 11.9587 12.1468 11.9351 12.1468 11.362C12.1468 11.0865 11.9853 10.9951 11.8239 10.8802C10.8567 10.1922 10.3027 9.50418 10.3027 8.38162C10.3027 7.16618 11.1559 6.22625 12.2624 6.22625C13.8753 6.22625 13.9212 8.06044 15.3727 8.22103C15.9252 7.8542 16.571 7.62433 17.1931 7.62433C18.138 7.62433 18.5528 7.87624 19.5674 7.87624C19.9584 7.87624 20.6501 7.76131 21.4574 7.21184C21.7565 7.00559 21.8958 6.95993 22.1712 6.73007C22.7933 6.1806 23.3932 5.12574 23.3932 4.36845V4.41411C23.3932 4.1622 23.3473 4.02523 23.2318 4.02523C22.8867 4.02523 22.586 4.34641 22.2409 4.66759C22.0335 4.89745 22.3564 4.98877 21.8721 5.26429C21.7106 5.35561 21.5033 5.19502 21.3196 5.19502C20.9271 5.19502 20.7672 4.73686 20.7672 4.34641C20.7672 4.14016 20.9287 4.0945 21.0205 3.9103C21.2278 3.52142 21.2041 3.38287 21.3893 2.99399C21.5048 2.74208 21.7122 2.55788 21.6885 2.37525C21.6885 2.30597 21.6426 2.26032 21.6426 2.19262C21.6426 1.80374 22.1491 1.55026 22.1491 1.16138C22.1491 0.955129 21.8958 0.840197 21.8499 0.679607C21.804 0.519017 21.8262 0.473359 21.8262 0.473359C21.8499 0.449743 21.8721 0.427701 21.8958 0.427701C22.1032 0.427701 22.1728 0.633949 22.3802 0.748881C22.4039 0.496975 22.3105 0.427701 22.3105 0.24507C22.3105 0.153754 22.2868 -0.00683594 22.4023 -0.00683594C22.5401 -0.00683594 22.5179 0.153754 22.6334 0.24507C22.7712 0.360002 22.9104 0.336386 23.0719 0.451318C23.2793 0.588291 23.3948 0.794539 23.4629 0.818155C23.6702 0.841771 23.7161 0.611907 23.6243 0.451318C23.8554 0.427701 24.085 0.611907 24.3841 0.611907C24.8685 0.611907 25.0062 0.748881 25.098 0.818155C25.3972 1.07006 25.4668 1.27631 25.7897 1.27631C25.9512 1.27631 26.043 1.13933 26.0889 1.07006C26.32 1.23065 26.3422 1.66676 26.0889 2.0336C26.1807 2.33116 26.6192 2.35478 26.8265 2.51537C27.0339 2.65234 26.988 2.72162 27.1494 2.81293C27.265 2.88221 27.3568 2.85859 27.4486 2.81293C27.5404 3.20339 27.1953 3.56865 26.7806 3.61588C26.8044 4.11969 27.333 4.44087 27.5879 4.57942C27.4502 4.9006 27.1969 4.99192 26.9658 5.06119C27.0355 5.38237 27.3805 5.84052 27.2191 6.25302C27.0576 6.18375 26.8265 6.25302 26.8265 6.48288C26.8265 6.73479 27.1494 6.87176 26.8028 7.05597C26.6413 7.14729 26.6192 7.37715 26.8946 7.5834C27.2634 7.49208 27.6322 7.49208 28.0469 7.49208C28.3002 7.49208 28.6468 7.42281 28.8764 7.42281C29.3148 7.42281 29.5681 7.5834 29.891 7.92662C30.5795 8.80042 31.295 9.69468 32.1244 10.3134Z" fill="black"/>
<path d="M10.8078 8.0217C10.9693 8.0217 11.2922 7.08178 11.9364 7.08178C12.12 7.08178 12.1675 7.15105 12.1675 7.21875C12.1675 7.35573 11.9602 7.47066 11.9602 7.63125C11.9602 7.65486 11.9839 7.70052 12.0298 7.70052C12.1913 7.70052 12.3068 7.3573 12.9511 7.3573C13.1347 7.3573 13.274 7.38092 13.4354 7.42658C13.5051 7.45019 13.6428 7.51789 13.5969 7.31164C13.4354 6.87553 12.9511 6.46304 12.2609 6.46304C11.5708 6.46304 10.8553 7.08178 10.7635 7.81545C10.7382 7.93039 10.7382 8.0217 10.8078 8.0217ZM22.7222 2.13183C22.5386 2.06256 22.5148 1.9492 22.5607 1.71934C22.6066 1.46743 22.6066 1.37612 22.4911 1.3525C22.3993 1.32888 22.26 1.37612 22.1223 1.51309C22.0067 1.67368 21.8231 1.85631 21.7535 2.0169C21.6838 2.22315 21.9371 2.19953 21.7772 2.52071C21.478 3.07018 21.4084 3.18511 21.2707 3.55195C21.133 3.94083 21.0396 4.0101 20.9715 4.14865C20.8797 4.26358 21.0871 4.28563 21.3166 4.21793C21.5699 4.12661 21.5699 4.42417 21.478 4.60838C21.4084 4.74535 21.4543 4.81463 21.6617 4.65404C21.8453 4.51706 21.5699 4.40213 21.6379 3.94398C21.7076 3.53148 21.7994 3.30162 22.0526 2.88912C22.26 2.52229 22.4436 2.27038 22.8362 2.40735C22.9992 2.47505 22.9295 2.22315 22.7222 2.13183ZM30.7189 14.2564C30.7886 14.2564 30.8107 14.1651 30.8107 14.0737C30.8107 13.8675 30.6952 13.5699 30.5337 13.455C30.4878 13.7526 30.3501 13.9588 30.3501 14.0737C30.3501 14.1887 30.6271 14.2564 30.7189 14.2564ZM32.4933 11.3909C32.6089 11.3909 32.7703 11.3453 32.7703 11.254C32.7703 11.0934 32.5171 10.7722 32.286 10.7045C32.4474 11.0257 32.286 11.3909 32.4933 11.3909ZM24.6122 7.49427C26.2251 8.22795 26.1333 9.60241 26.271 9.25919C26.3407 9.12221 26.548 8.45781 25.9718 7.79184C25.5334 7.28803 25.3498 7.40296 25.5334 6.98889C26.2473 5.29325 26.6857 2.72538 24.5662 1.80908C24.313 1.71776 24.1278 1.71776 24.1278 1.76342C24.1278 1.80908 24.3589 1.87835 24.6343 2.06098C26.0399 3.00091 25.6015 5.52154 24.3114 6.73698C23.8745 7.15105 24.0819 7.24237 24.6122 7.49427ZM19.0578 19.3449C19.1734 19.3449 19.1037 19.1843 19.0816 19.093C18.9898 18.9324 18.8046 18.8174 18.6431 18.7261C18.689 18.8867 18.7128 19.3228 18.8742 19.3228H19.0578V19.3449ZM14.173 19.3449C14.2886 19.3449 14.1968 19.1843 14.1493 19.093C14.0575 18.9324 13.8501 18.8174 13.6887 18.7497C13.7346 18.9103 13.7583 19.3464 13.9419 19.3464L14.173 19.3449ZM20.0946 9.67326C20.9937 9.58194 21.1314 9.3757 21.2928 8.71129C21.3625 8.39011 21.592 8.06893 21.7994 7.86269C21.9371 7.72571 22.0526 7.61078 22.1903 7.38092C22.2362 7.2896 22.26 7.22033 22.1903 7.24394C22.0985 7.31322 21.7994 7.51946 21.6601 7.61078C21.038 8.04689 20.0693 8.27518 19.6783 8.27518C18.8489 8.27518 18.1572 8.02328 17.3974 8.02328C15.1623 8.02328 14.3329 9.76457 14.4485 10.7738C14.4722 10.9344 14.4944 10.9344 14.5403 10.9344C14.7017 10.9344 14.8394 10.3377 15.3934 9.81181C16.2229 9.03247 17.0982 8.59636 18.3661 8.59636C19.2873 8.59636 19.6561 8.89393 19.6561 9.00886C19.6561 9.23872 19.2652 9.26076 19.2873 9.49063C19.2889 9.55833 19.5184 9.74096 20.0946 9.67326Z" fill="#747172"/>
<path d="M0 19.9639H27.1243V20.7432H0V19.9639Z" fill="#008037"/>
</g>
<defs>
<clipPath id="clip0_216_87">
<rect width="33" height="21" fill="white"/>
</clipPath>
</defs>
</svg>
