<svg width="27" height="27" viewBox="0 0 27 27" fill="none" xmlns="http://www.w3.org/2000/svg">
<g clip-path="url(#clip0_216_58)">
<path d="M26.9987 19.0518C26.9987 19.3834 26.868 19.7015 26.6334 19.9356L21.0351 25.5339C20.8917 25.6761 20.6774 25.7187 20.4867 25.6415C20.296 25.5643 20.1787 25.3824 20.1787 25.1808V12.6363L26.919 5.93359H27L26.9987 19.0518Z" fill="#E34B5F"/>
<path d="M22.5314 1.46583C22.3361 1.2705 22.0197 1.2705 21.8244 1.46583L13.5004 9.78943H13.3848V19.1846L13.5004 19.4314L26.9987 5.93265L22.5314 1.46583Z" fill="#E7CE9C"/>
<path d="M1.01424e-06 19.0518C-0.000420861 19.3834 0.130782 19.7015 0.365345 19.936L5.96363 25.5343C6.10706 25.6765 6.32138 25.7191 6.51206 25.6419C6.70275 25.5647 6.82003 25.3829 6.82003 25.1812V12.6363L0.077626 5.93359H1.01424e-06V19.0518Z" fill="#1E7889"/>
<path d="M5.17472 1.46583C4.97939 1.2705 4.66299 1.2705 4.46766 1.46583L0 5.93349L13.4992 19.4335V9.79027L5.17472 1.46583Z" fill="#97BAA6"/>
</g>
<defs>
<clipPath id="clip0_216_58">
<rect width="27" height="27" fill="white"/>
</clipPath>
</defs>
</svg>
