<svg width="27" height="31" viewBox="0 0 27 31" fill="none" xmlns="http://www.w3.org/2000/svg">
<path d="M21.7933 30.6351H5.17991C3.06073 30.6351 1.33398 28.8981 1.33398 26.7663V24.5029H25.6392V26.7663C25.6392 28.8981 23.9125 30.6351 21.7933 30.6351Z" fill="#E50012"/>
<path d="M23.9651 24.5024C24.7238 24.5024 25.4826 24.1866 26.0581 23.6339C26.6599 23.0549 27 22.2654 27 21.4758V14.2119C27 13.3434 26.686 12.6065 26.0843 11.9749L22.0291 7.89552C21.8721 7.73761 21.7674 7.52706 21.7674 7.2902V2.86871C21.7674 2.10547 21.4535 1.39488 20.9041 0.842189C20.3547 0.315821 19.6483 0 18.8895 0H15.7238C14.1802 0 12.8983 1.2896 12.8983 2.86871V3.10557C12.8983 3.26348 12.7674 3.39507 12.6105 3.39507H12.1657C11.6163 3.39507 11.0669 3.60562 10.6221 4.0004C10.3605 4.21094 10.1773 4.47413 10.0465 4.76363C9.75872 4.73731 9.4186 4.71099 9.15698 4.71099C4.68314 4.71099 0 8.1587 0 14.0803C0 19.0808 4.15988 21.2916 4.39535 21.4495C4.55233 21.5548 4.89244 21.818 4.89244 22.2654V25.0025C4.89244 25.792 5.2064 26.5289 5.75581 27.0816C6.30523 27.608 7.03779 27.8975 7.79651 27.8975H18.968C19.7267 27.8975 20.407 27.6606 20.9041 27.2132C21.4273 26.7132 21.7413 26.0026 21.7413 25.213V24.7656C21.7413 24.6077 21.8721 24.4761 22.0291 24.4761H23.9651V24.5024Z" fill="white"/>
<path d="M25.116 12.9746L20.8776 8.711C20.616 8.44781 20.4328 8.07936 20.4328 7.7109V2.89463C20.4328 2.05244 19.7264 1.36816 18.9154 1.36816H15.9067C15.0695 1.36816 14.4154 2.02612 14.4154 2.86831V4.31582C14.4154 4.50005 14.2846 4.78956 13.9183 4.78956H12.3224C11.8776 4.78956 11.4067 5.1317 11.3543 5.63175C11.3282 6.02652 11.1974 6.34234 10.5171 6.21075H10.491C10.4648 6.21075 10.4648 6.21075 10.4386 6.21075C9.96771 6.13179 9.49678 6.07916 8.99968 6.07916C4.76131 6.07916 1.33398 9.52687 1.33398 13.7904C1.33398 16.3697 2.5898 18.633 4.49968 20.0542C4.60433 20.1332 4.73515 20.1858 4.86596 20.1858C5.07526 20.1858 5.28457 20.0805 5.38922 19.8963L9.73224 13.3694C9.73224 13.3694 10.177 12.6851 11.0142 12.6851H16.0375C16.2991 12.6851 16.5084 12.4745 16.5084 12.2113C16.5084 12.1587 16.5084 12.1324 16.4822 12.0798C15.9851 9.94796 14.6247 8.13199 12.7933 7.07926C12.6363 7.0003 12.5317 6.84239 12.5317 6.63184C12.5317 6.36866 12.741 6.13179 13.0288 6.13179H14.6508C15.2526 6.13179 15.7497 5.63175 15.7497 5.02642V3.15782C15.7497 2.86831 15.9851 2.68408 16.2206 2.68408H18.6014C18.8369 2.68408 19.0724 2.89463 19.0724 3.15782V13.5273C19.0724 13.7641 19.2555 14.001 19.5433 14.001H23.8078C24.1218 14.001 24.2788 14.2642 24.2788 14.4747V21.3175C24.2788 21.5544 24.0956 21.7912 23.7817 21.7912H20.0404C19.4125 21.7912 18.9939 22.3176 18.9939 22.844V24.6863C18.9939 24.9758 18.7584 25.16 18.5229 25.16H14.3892V23.1072C14.3892 22.7387 14.1014 22.4229 13.709 22.4229C13.3427 22.4229 13.0288 22.7124 13.0288 23.1072V25.16H7.97933C7.74387 25.16 7.5084 24.9758 7.5084 24.6863V21.5807C7.5084 21.2912 7.74387 21.107 7.97933 21.107H13.8136C14.1014 21.107 14.3369 20.7648 14.3369 20.7648L18.366 14.7379C18.6014 14.3695 18.2875 14.001 17.9997 14.001H11.145C10.8834 14.001 10.7526 14.1852 10.6218 14.3958L6.51422 20.5543C6.51422 20.5543 6.1741 21.028 6.1741 21.607V24.9758C6.1741 25.8443 6.8805 26.5286 7.77003 26.5286H19.2293C19.7526 26.5286 20.3282 26.1338 20.3282 25.4232V23.6072C20.3282 23.3967 20.4851 23.1335 20.7991 23.1335H23.9386C24.802 23.1335 25.6392 22.3702 25.6392 21.4754V14.2115C25.6654 13.6852 25.4299 13.2904 25.116 12.9746ZM21.0346 19.791V18.3962C21.0346 18.0277 20.7468 17.7119 20.3543 17.7119C19.9881 17.7119 19.6741 18.0014 19.6741 18.3962V19.791C19.6741 20.1595 19.9619 20.4753 20.3543 20.4753C20.7468 20.4753 21.0346 20.1595 21.0346 19.791Z" fill="#00428D"/>
</svg>
