<svg width="30" height="30" viewBox="0 0 30 30" fill="none" xmlns="http://www.w3.org/2000/svg">
<path d="M15 0C6.72656 0 0 6.72656 0 15C0 23.2734 6.72656 30 15 30C23.2734 30 30 23.2676 30 15C30 6.73242 23.2734 0 15 0ZM15 27.6738C8.00977 27.6738 2.32617 21.9902 2.32617 15C2.32617 8.00977 8.00977 2.32617 15 2.32617C21.9902 2.32617 27.6738 8.00977 27.6738 15C27.6738 21.9902 21.9902 27.6738 15 27.6738Z" fill="white"/>
<path d="M21.8846 9.78509C21.4099 9.35736 20.6775 9.38665 20.2439 9.86126L13.1541 17.6659L9.73221 14.1855C9.28104 13.7284 8.54862 13.7226 8.09158 14.1738C7.63455 14.6249 7.62869 15.3574 8.07987 15.8144L12.3689 20.1738C12.5857 20.3964 12.8846 20.5195 13.1951 20.5195C13.201 20.5195 13.2127 20.5195 13.2185 20.5195C13.5408 20.5136 13.8396 20.373 14.0564 20.1386L21.9607 11.4257C22.3943 10.9511 22.3592 10.2128 21.8846 9.78509Z" fill="white"/>
</svg>
