<svg width="24" height="30" viewBox="0 0 24 30" fill="none" xmlns="http://www.w3.org/2000/svg">
<g clip-path="url(#clip0_216_83)">
<path d="M11.3051 6.14994C10.9447 8.6784 10.6599 10.8058 10.1426 14.1131C11.5376 14.0841 14.7113 14.6421 15.4088 10.1141C15.9784 6.34757 13.4034 5.99882 11.3051 6.14994Z" fill="black"/>
<path d="M23.3954 24.3604C23.9417 25.5694 23.3954 27.0981 22.2561 27.7142C21.6051 28.063 20.8669 28.3943 20.1229 28.5745C18.9023 28.8709 17.6468 29.0279 16.3854 29.0627C14.3685 29.0627 12.3573 27.9118 11.4855 26.511C11.2646 26.9935 10.445 27.9642 9.02676 28.4292C8.13163 28.7198 7.04468 29.0685 4.78941 29.0685C2.76083 29.0627 1.60414 28.1443 0.999634 27.3771C0.0231267 26.1448 -0.116375 24.5929 0.0696268 23.5466L0.0812519 23.4943C0.842695 19.658 1.88314 12.6888 2.37139 9.19545V9.16057C2.50508 8.18406 2.63877 7.21918 2.72015 6.24267C2.76083 5.74861 2.78409 5.25454 2.7899 4.76047C2.7899 4.29547 2.74921 3.83047 2.74921 3.36546C2.75502 2.92371 2.83059 2.48196 3.03402 2.0867C3.37115 1.45895 3.98147 0.970695 4.63247 0.749818C5.3416 0.511504 6.08561 0.412691 6.8238 0.331315C7.57943 0.249939 8.33506 0.168564 9.0907 0.104626C10.0207 0.0348753 10.9449 0 11.8749 0C13.4617 0 15.0544 0.0290627 16.6179 0.348753C18.2106 0.680068 19.8207 1.30201 21.082 2.40058C21.9422 3.15621 22.6281 4.10947 23.1396 5.14991C23.5872 6.06248 23.7732 7.03318 23.8836 7.76556C24.0754 9.09082 24.0231 10.4393 23.7325 11.7472C23.5 12.6946 23.1047 13.6014 22.5758 14.4267C21.9771 15.3567 21.2157 16.2054 20.2333 17.0075C20.8379 18.7455 22.3956 22.1284 23.3954 24.3604ZM5.57411 3.54565C5.61479 4.18503 5.61479 4.83022 5.58573 5.47542C5.56248 6.13224 5.50436 6.78905 5.42879 7.45168C5.35904 8.10269 5.27185 8.74788 5.17885 9.39889L5.1556 9.60814C4.8766 11.6425 4.58016 13.6711 4.27791 15.6881C3.94659 17.8213 3.58622 19.9312 3.22584 22.0528C3.06309 23.0467 2.67946 24.3081 3.19678 25.2497C3.65597 26.0925 4.83591 26.1971 5.65548 26.11C8.64894 25.8019 9.13138 25.1334 9.13138 25.1334C8.53269 24.4708 9.05001 21.4541 9.6487 17.4028H11.7819L14.0081 24.1395C14.0081 24.1395 14.6649 26.2262 16.4959 26.1274C18.8325 25.9937 20.5472 25.4648 20.803 25.1683C20.088 24.7673 18.0246 19.6115 16.8969 15.8334C17.4433 15.4962 17.9723 15.1417 18.4663 14.7348C19.1464 14.1826 19.7742 13.5432 20.2566 12.7992C20.6053 12.2587 20.8727 11.6658 21.0239 11.038C21.0994 10.7067 21.1459 10.358 21.175 10.015C21.2273 9.41632 21.2099 8.81182 21.1227 8.21894C21.0355 7.6435 20.9134 7.00993 20.6577 6.49261C20.1868 5.53354 19.5126 4.69072 18.6 4.15016C17.0539 3.2434 15.2752 3.06902 13.5431 2.97021C11.6598 2.86558 9.77076 2.92952 7.90494 3.15621C7.68406 3.18527 5.56248 3.37709 5.57411 3.54565Z" fill="black"/>
</g>
<defs>
<clipPath id="clip0_216_83">
<rect width="24" height="30" fill="white"/>
</clipPath>
</defs>
</svg>
