<svg width="30" height="30" viewBox="0 0 30 30" fill="none" xmlns="http://www.w3.org/2000/svg">
<g clip-path="url(#clip0_216_55)">
<path d="M21.5753 13.3618C21.5068 12.3125 21.2329 11.2631 20.6849 10.3537L16.0274 2.02876C15.6849 1.39915 15.411 0.699573 15.274 0L15.0685 0.349786C13.9041 2.37855 13.9041 4.96696 15.0685 6.99573L18.8356 13.6417C20 15.6704 20 18.2588 18.8356 20.2876L18.6301 20.6374C18.4932 19.9378 18.2192 19.2382 17.8767 18.6086L14.4521 12.5223L12.2603 8.60474C11.9178 7.97513 11.6438 7.27555 11.5068 6.57598L11.3014 6.92577C10.137 8.95453 10.137 11.473 11.3014 13.5717L15.0685 20.2176C16.2329 22.2464 16.2329 24.8348 15.0685 26.8636L14.863 27.2134C14.726 26.5138 14.4521 25.8142 14.1096 25.1846L9.38356 16.8597C8.76712 15.7404 8.49315 14.4812 8.49315 13.2219C3.49315 14.5511 0 17.4194 0 20.7073C0 25.3245 6.71233 29.0323 15 29.0323C23.2877 29.0323 30 25.3245 30 20.7073C30.0685 17.5593 26.6438 14.691 21.5753 13.3618Z" fill="#EC0000"/>
</g>
<defs>
<clipPath id="clip0_216_55">
<rect width="30" height="30" fill="white"/>
</clipPath>
</defs>
</svg>
