<svg width="33" height="17" viewBox="0 0 33 17" fill="none" xmlns="http://www.w3.org/2000/svg">
<g clip-path="url(#clip0_216_67)">
<path d="M2.51337 7.2998H6.53903C6.57358 7.2998 6.58222 7.32566 6.53903 7.33428C6.08981 7.53249 5.43327 8.14436 5.43327 8.14436C4.98405 8.5494 4.62986 8.80794 3.86965 8.80794H0.0167738C-0.00914239 8.80794 -0.00914239 8.78209 0.0081351 8.77347C0.431434 8.55802 1.06206 7.92891 1.06206 7.92891C1.32986 7.67038 1.85683 7.2998 2.51337 7.2998Z" fill="#00539F"/>
<path d="M28.9392 7.2998H32.9735C33.008 7.2998 33.0166 7.32566 32.9648 7.33428C32.5156 7.53249 31.8591 8.14436 31.8591 8.14436C31.4098 8.5494 31.047 8.80794 30.2954 8.80794H26.4426C26.4166 8.80794 26.4166 8.78209 26.4339 8.77347C26.8572 8.55802 27.4878 7.92891 27.4878 7.92891C27.747 7.67038 28.2826 7.2998 28.9392 7.2998Z" fill="#00539F"/>
<path d="M9.12275 7.2998H13.1484C13.183 7.2998 13.1916 7.32566 13.1398 7.33428C12.6905 7.53249 12.0426 8.14436 12.0426 8.14436C11.5934 8.5494 11.2392 8.80794 10.4704 8.80794H6.62615C6.60023 8.80794 6.60023 8.78209 6.61751 8.77347C7.04081 8.55802 7.67144 7.92891 7.67144 7.92891C7.9306 7.67038 8.4662 7.2998 9.12275 7.2998Z" fill="#00539F"/>
<path d="M15.7311 7.2998H19.7568C19.7914 7.2998 19.8 7.32566 19.7568 7.33428C19.3076 7.53249 18.651 8.14436 18.651 8.14436C18.2018 8.5494 17.8476 8.80794 17.0874 8.80794H13.2345C13.2086 8.80794 13.2086 8.78209 13.2259 8.77347C13.6492 8.55802 14.2798 7.92891 14.2798 7.92891C14.539 7.67038 15.0746 7.2998 15.7311 7.2998Z" fill="#00539F"/>
<path d="M22.3404 7.2998H26.366C26.4006 7.2998 26.4092 7.32566 26.3574 7.33428C25.9082 7.53249 25.2516 8.14436 25.2516 8.14436C24.8024 8.5494 24.4482 8.80794 23.688 8.80794H19.8351C19.8092 8.80794 19.8092 8.78209 19.8265 8.77347C20.2584 8.55802 20.8804 7.92891 20.8804 7.92891C21.1482 7.67038 21.6752 7.2998 22.3404 7.2998Z" fill="#00539F"/>
<path d="M23.4276 0.0175781C20.8965 0.0175781 19.2119 1.2327 19.2119 3.08556C19.2119 4.78329 20.7496 5.91223 23.0562 5.91223C23.7991 5.91223 24.4729 5.81744 25.2504 5.63646V4.20589C24.6975 4.78329 24.041 5.01597 23.3412 5.01597C21.985 5.01597 21.052 4.17141 21.052 2.95629C21.052 1.7584 22.0195 0.887988 23.3671 0.887988C24.1014 0.887988 24.6889 1.14653 25.164 1.61189V0.164083C24.663 0.0692856 24.0496 0.0175781 23.4276 0.0175781Z" fill="#ED1C24"/>
<path d="M4.37136 1.00833C5.31298 1.01694 6.43602 1.1893 6.91115 1.55126V0.198242H0.233398V1.55126C0.708529 1.18069 1.70198 1.0428 2.79047 1.03418V4.73989C2.79047 5.28282 2.74727 5.43794 2.51403 5.72233H4.65644C4.40591 5.42932 4.37136 5.2742 4.37136 4.73989V1.00833Z" fill="#ED1C24"/>
<path d="M11.3076 2.3441C10.9188 2.46476 10.2364 2.50785 9.86491 2.50785H9.31203V1.03418H10.0722C10.7461 1.03418 11.9123 1.17207 12.3529 1.54264V0.198242H7.48926C7.71387 0.482634 7.75706 0.637756 7.75706 1.18069V4.73989C7.75706 5.28282 7.71387 5.44656 7.4979 5.72233H12.6811V4.36932C11.9728 4.86916 10.6165 4.87777 10.0636 4.86916H9.30339V3.32655H9.85627C10.2277 3.32655 10.9102 3.36964 11.2989 3.48167V2.3441H11.3076Z" fill="#ED1C24"/>
<path d="M18.5217 0.379188C17.7614 0.137887 16.7421 0 15.9732 0C14.5651 0 13.2002 0.41366 13.2002 1.80976C13.2002 4.22278 17.4245 2.94733 17.4245 4.42961C17.4245 4.91221 16.6816 5.11043 16.0769 5.11043C14.9884 5.11043 14.2368 4.94669 13.2866 4.3779V5.59303C13.995 5.82571 14.9625 5.93775 16.0078 5.93775C17.4677 5.93775 18.824 5.55856 18.824 4.1366C18.824 1.62017 14.5997 2.74912 14.5997 1.51675C14.5997 1.01691 15.2735 0.844556 15.8696 0.844556C16.863 0.844556 17.9429 1.13757 18.5303 1.68911V0.379188H18.5217Z" fill="#ED1C24"/>
<path d="M27.2902 2.95612C27.2902 1.7927 28.0331 0.844727 29.1907 0.844727C30.331 0.844727 31.0912 1.7927 31.0912 2.95612C31.0912 4.11954 30.331 5.06751 29.1907 5.06751C28.0245 5.06751 27.2902 4.12816 27.2902 2.95612ZM32.7671 2.92165C32.7671 1.18083 31.3936 0.00878906 29.3376 0.00878906C27.152 0.00878906 25.6143 1.25839 25.6143 3.02506C25.6143 4.75726 26.9965 5.90345 29.0611 5.90345C31.2554 5.92068 32.7671 4.69694 32.7671 2.92165Z" fill="#ED1C24"/>
<path d="M2.76455 16.8218H0.458006C0.380257 16.8218 0.337063 16.7874 0.337063 16.7098V10.8582C0.337063 10.6514 0.302508 10.4618 0.233398 10.3584H2.55722C3.87895 10.3584 4.38 11.0823 4.38 11.8838C4.38 12.3664 4.25041 12.9782 3.55931 13.3661C4.45774 13.6763 4.76874 14.2882 4.76874 15.0293C4.7601 15.9859 4.01717 16.8218 2.76455 16.8218ZM2.45356 11.022H1.15774V13.1161H2.46219C3.07555 13.1161 3.49884 12.6939 3.49884 12.0647C3.49884 11.3667 3.1101 11.022 2.45356 11.022ZM2.63497 13.7711H1.15774V16.1583H2.64361C3.40382 16.1583 3.86167 15.667 3.86167 14.9604C3.85303 14.2623 3.38654 13.7711 2.63497 13.7711Z" fill="#00539F"/>
<path d="M8.22451 16.822C8.13812 16.822 8.09492 16.7875 8.09492 16.7099V16.4083C7.91351 16.5807 7.49885 16.934 6.66953 16.934C5.75383 16.934 5.24414 16.3652 5.24414 15.5293C5.24414 14.5899 5.90068 14.0729 6.9978 14.0729C7.38655 14.0729 7.79257 14.1159 8.08629 14.1676V13.9436C8.08629 13.2283 7.69754 12.9956 6.96325 12.9956C6.37582 12.9956 5.94388 13.1938 5.80566 13.2886L5.66744 12.9094C5.6588 12.875 5.63288 12.7974 5.64152 12.7888C5.61561 12.6767 5.68472 12.6164 5.8143 12.5647C5.95252 12.4958 6.45356 12.332 7.06692 12.332C8.46639 12.332 8.88969 12.9611 8.88969 13.8919V16.8306H8.22451V16.822ZM8.07765 14.7623C7.83576 14.7192 7.40383 14.6589 7.09283 14.6589C6.38445 14.6589 6.04754 14.9519 6.04754 15.5034C6.04754 16.0464 6.39309 16.2877 6.92869 16.2877C7.55068 16.2877 7.93943 15.9429 8.07765 15.762V14.7623Z" fill="#00539F"/>
<path d="M12.8719 16.822C12.7941 16.822 12.7509 16.7875 12.7509 16.7099V14.1159C12.7509 13.4007 12.4831 13.0128 11.8007 13.0128C11.2305 13.0128 10.7986 13.3748 10.5567 13.7195V16.8306H9.88288C9.80513 16.8306 9.76194 16.7961 9.76194 16.7186V13.5902C9.76194 13.3059 9.74467 13.0128 9.69283 12.7715C9.67556 12.6423 9.64964 12.5302 9.60645 12.4441H10.2371C10.3321 12.4441 10.3667 12.4785 10.3839 12.5302C10.4012 12.5733 10.4185 12.6423 10.4271 12.7112C10.4444 12.806 10.453 12.918 10.4617 13.0042C10.6517 12.7888 11.1614 12.332 11.913 12.332C13.0533 12.332 13.5284 12.9267 13.5284 13.9436V16.8306H12.8719V16.822Z" fill="#00539F"/>
<path d="M17.4846 16.8226C17.3895 16.8226 17.3032 16.7967 17.1995 16.6847L15.2212 14.6423V16.8312H14.5474C14.4696 16.8312 14.4265 16.7967 14.4265 16.7192V10.859C14.4265 10.6522 14.3919 10.4626 14.2969 10.3592L14.8066 10.3161C14.9275 10.3074 15.0312 10.2988 15.083 10.2988C15.178 10.2988 15.2212 10.3333 15.2212 10.4195V14.2286L16.9144 12.574C17.0267 12.4705 17.1045 12.4361 17.1995 12.4361H18.0547L16.0073 14.3923L18.4262 16.8226H17.4846Z" fill="#00539F"/>
</g>
<defs>
<clipPath id="clip0_216_67">
<rect width="33" height="17" fill="white"/>
</clipPath>
</defs>
</svg>
