<svg width="32" height="12" viewBox="0 0 32 12" fill="none" xmlns="http://www.w3.org/2000/svg">
<g clip-path="url(#clip0_800_943)">
<path d="M26.1188 0C23.963 0 22.0814 1.15888 21.0596 2.89097C21.5705 3.76324 21.8695 4.78505 21.8695 5.86916C21.8695 6.95327 21.5705 7.97508 21.0596 8.84735C22.0814 10.5794 23.963 11.7383 26.1188 11.7383C29.3587 11.7383 31.9879 9.10903 31.9879 5.86916C32.0004 2.62928 29.3711 0 26.1188 0Z" fill="#26358C"/>
<path d="M21.0598 2.89097C20.038 1.15888 18.1564 0 16.0006 0C13.8448 0 11.9632 1.15888 10.9414 2.89097C11.4523 3.76324 11.7514 4.78505 11.7514 5.86916C11.7514 6.95327 11.4523 7.97508 10.9414 8.84735C11.9632 10.5794 13.8448 11.7383 16.0006 11.7383C18.1564 11.7383 20.038 10.5794 21.0598 8.84735C20.5489 7.97508 20.2498 6.95327 20.2498 5.86916C20.2498 4.78505 20.5489 3.7757 21.0598 2.89097Z" fill="#0068B3"/>
<path d="M10.9408 2.89097C9.91901 1.15888 8.02492 0 5.86916 0C2.62928 0 0 2.62928 0 5.86916C0 9.10903 2.62928 11.7383 5.86916 11.7383C8.02492 11.7383 9.90654 10.5794 10.9284 8.84735C10.4174 7.97508 10.1184 6.95327 10.1184 5.86916C10.1308 4.78505 10.4174 3.7757 10.9408 2.89097Z" fill="#36BCEE"/>
<path d="M10.9408 8.84701C11.4517 7.97473 11.7508 6.95293 11.7508 5.86882C11.7508 4.7847 11.4517 3.7629 10.9408 2.89062C10.4299 3.7629 10.1309 4.7847 10.1309 5.86882C10.1309 6.96539 10.4175 7.97473 10.9408 8.84701Z" fill="#005C9E"/>
<path d="M10.9408 8.84701C10.405 7.94981 10.1309 6.91554 10.1309 5.86882C10.1309 4.82209 10.4175 3.78782 10.9408 2.89062C11.4767 3.78782 11.7508 4.82209 11.7508 5.86882C11.7508 6.91554 11.4642 7.94981 10.9408 8.84701ZM10.9408 2.90309C10.405 3.80028 10.1309 4.83455 10.1309 5.88128C10.1309 6.92801 10.4175 7.96227 10.9408 8.85947C11.4767 7.96227 11.7508 6.92801 11.7508 5.88128C11.7508 4.82209 11.4642 3.80028 10.9408 2.90309Z" fill="#005C9E"/>
<path d="M21.059 8.84701C21.5699 7.97473 21.869 6.95293 21.869 5.86882C21.869 4.7847 21.5699 3.7629 21.059 2.89062C20.5481 3.7629 20.249 4.7847 20.249 5.86882C20.249 6.96539 20.5481 7.97473 21.059 8.84701Z" fill="#002F60"/>
<path d="M8.08711 3.82556H6.37995V9.0592H5.19615V3.82556H3.52637V2.75391H8.08711V3.82556Z" fill="white"/>
<path d="M24.0879 2.75391H26.2935C27.1284 2.76637 27.3527 2.76637 27.6642 2.86606C28.2997 3.05297 28.7359 3.61372 28.7359 4.29908C28.7359 4.57322 28.6736 4.90967 28.4991 5.15889C28.2997 5.42057 28.0505 5.54518 27.7141 5.60749C28.4119 5.7321 29.0225 6.29285 29.0225 7.26481C29.0225 7.98755 28.6985 8.63553 27.9384 8.89721C27.5396 9.03428 27.2281 9.04674 26.5053 9.04674H24.0879V2.75391ZM25.2468 3.71341V5.2835H25.6081C25.9321 5.2835 26.1813 5.2835 26.3184 5.27104C26.6175 5.27104 26.9041 5.25858 27.1284 5.14643C27.3776 5.02182 27.5521 4.78506 27.5521 4.49845C27.5521 4.26169 27.4275 4.01247 27.1907 3.8754C26.9415 3.73833 26.8169 3.72587 25.957 3.71341H25.2468ZM25.2468 6.16824V8.0374H26.3683C27.0661 8.0374 27.253 8.0374 27.5521 7.82556C27.7141 7.71341 27.8387 7.46419 27.8387 7.16512C27.8387 7.02805 27.8137 6.8536 27.7265 6.6916C27.4399 6.1807 26.7795 6.16824 26.3807 6.16824H25.2468Z" fill="white"/>
<path d="M16.6108 5.32124L15.9628 5.18417C15.3896 5.07202 14.8164 4.97233 14.8164 4.4365C14.8164 3.96298 15.3647 3.67638 16.0002 3.67638C16.9472 3.67638 17.3709 4.23713 17.5827 4.56111L18.5173 3.81345C18.0687 3.22778 17.3709 2.61719 16.0625 2.61719C14.5921 2.61719 13.5952 3.37731 13.5952 4.56111C13.5952 5.59538 14.3678 5.98167 14.6544 6.09382C14.8538 6.16859 15.0407 6.21843 15.4394 6.31812L16.1871 6.48012C16.7603 6.61719 16.7728 6.61719 16.9098 6.67949C17.1092 6.75426 17.3834 6.90379 17.3834 7.30255C17.3834 7.51438 17.3086 7.83837 16.8475 8.02529C16.6232 8.11252 16.3989 8.13744 16.1746 8.13744C14.9161 8.13744 14.4301 7.48946 14.2556 7.22778L13.3086 7.95052C13.7821 8.67326 14.4675 8.94741 14.8787 9.05956C15.265 9.17171 15.6513 9.19663 16.0002 9.19663C17.3335 9.19663 18.6544 8.62342 18.6544 7.1904C18.6295 5.8446 17.4457 5.49569 16.6108 5.32124Z" fill="white"/>
</g>
<defs>
<clipPath id="clip0_800_943">
<rect width="32" height="11.7508" fill="white"/>
</clipPath>
</defs>
</svg>
