<svg width="47" height="47" viewBox="0 0 47 47" fill="none" xmlns="http://www.w3.org/2000/svg">
<path d="M23.5 47C36.4787 47 47 36.4787 47 23.5C47 10.5213 36.4787 0 23.5 0C10.5213 0 0 10.5213 0 23.5C0 36.4787 10.5213 47 23.5 47Z" fill="#FFF7D4"/>
<path d="M23.4977 27.4776C23.1147 27.4776 22.8022 27.1651 22.8022 26.7821C22.8022 26.3904 22.4853 26.069 22.0891 26.069C21.6929 26.069 21.376 26.3859 21.376 26.7821C21.376 27.6801 21.9438 28.4725 22.7802 28.7718V29.5993C22.7802 29.9911 23.0971 30.3125 23.4933 30.3125C23.8895 30.3125 24.2064 29.9955 24.2064 29.5993V28.7718C25.0428 28.4725 25.6106 27.6801 25.6106 26.7821C25.6106 25.6156 24.6598 24.6648 23.4933 24.6648C23.1103 24.6648 22.7978 24.3523 22.7978 23.9693C22.7978 23.5863 23.1103 23.2738 23.4933 23.2738C23.8763 23.2738 24.1888 23.5863 24.1888 23.9693C24.1888 24.3611 24.5057 24.6824 24.9019 24.6824C25.2981 24.6824 25.615 24.3655 25.615 23.9693C25.615 23.0713 25.0472 22.279 24.2108 21.9796V21.1565C24.2108 20.7647 23.8939 20.4434 23.4977 20.4434C23.1015 20.4434 22.7846 20.7603 22.7846 21.1565V21.9796C21.9482 22.279 21.3804 23.0713 21.3804 23.9693C21.3804 25.1358 22.3312 26.0866 23.4977 26.0866C23.8807 26.0866 24.1932 26.3992 24.1932 26.7821C24.1932 27.1695 23.8807 27.4776 23.4977 27.4776Z" fill="#FFCE00"/>
<path d="M34.2868 19.5202C34.6786 19.5202 34.9999 19.2032 34.9999 18.8071V15.3736C34.9999 15.0434 34.7754 14.7617 34.4585 14.6825L23.6694 12.0237C23.5593 11.9973 23.4405 11.9973 23.3304 12.0237L12.5413 14.6825C12.2244 14.7617 11.9999 15.0434 11.9999 15.3736V18.8115C11.9999 19.2032 12.3168 19.5246 12.713 19.5246H13.4085V30.7715C13.1268 30.8067 12.8935 31.0092 12.8143 31.2865L12.0263 34.0993C11.9647 34.3106 12.0087 34.5439 12.1452 34.72C12.2772 34.8961 12.4885 35.0017 12.713 35.0017H34.2912C34.5113 35.0017 34.7226 34.8961 34.859 34.72C34.9911 34.5439 35.0395 34.3106 34.9779 34.0993L34.1856 31.2821C34.1063 31.0048 33.873 30.8023 33.5913 30.7671V19.5202H34.2868ZM33.5781 15.9326V18.1028H13.4217V15.9326L23.4977 13.4455L33.5781 15.9326ZM32.1695 19.5202V30.7627H30.7785V19.5202H32.1695ZM29.3567 19.5202V30.7627H17.6432V19.5202H29.3567ZM16.2213 19.5202V30.7627H14.8303V19.5202H16.2213ZM32.9618 32.1845L33.3492 33.5755H13.6462L14.0336 32.1845H32.9618Z" fill="#FFCE00"/>
</svg>
